<?xml version="1.0" encoding="utf-8"?>
<svg version="1.1" xmlns="http://www.w3.org/2000/svg" xmlns:xlink="http://www.w3.org/1999/xlink" x="0px" y="0px"
	 viewBox="-326 237.8 305.2 86.2" style="enable-background:new -326 237.8 305.2 86.2;" xml:space="preserve">
<style type="text/css">
	.st0{enable-background:new    ;}
	.st1{fill:none;stroke:#FFFFFF;stroke-width:2;stroke-miterlimit:10;}
</style>
<g class="st0">
	<path class="st1" d="M-319.3,260.1c0-13.6,11.2-21.3,26.3-21.3c16.3,0,25,9.3,25,16.7c0,6-2.7,8.5-6,8.5c-4.2,0-5.2-2.1-5.2-2.1
		s1.1-1.4,1.1-5.4c0-8.7-9-13.1-16.8-13.1c-9.8,0-15,5.9-15,12.6c0,25.3,43.7,11.1,43.7,43.3c0,16.2-13.7,23.7-27.7,23.7
		c-17.2,0-31.1-9.2-31.1-22c0-6,2.6-9.4,6.3-9.4c4.2,0,5.1,1.9,5.1,1.9s-1,2.7-1,6.5c0,9.2,8,18.2,21.5,18.2c9.3,0,17-7.4,17-16.6
		C-276,276.2-319.3,288.5-319.3,260.1z"/>
</g>
<g class="st0">
	<path class="st1" d="M-216.8,294c1.4,0,2.2,1.4,2.2,3.4c0,9-6.2,21-21.5,21c-15.7,0-25.6-8.1-25.6-23.5c0-16.7,9.4-25.3,21.3-25.3
		c9.7,0,13,6.5,13,12.1c0,10.7-9.8,18.6-23.8,18.6c1.4,9.4,7.2,13.8,15.1,13.8c8.5,0,17.7-5.8,17.7-19.6
		C-218.4,294.6-218.3,294-216.8,294z M-251.5,296.4c7.2-1,16.4-4.4,16.4-14c0-5.6-2.6-8.6-7-8.6c-6.6,0-9.4,5.8-9.4,21.6V296.4z"/>
</g>
<g class="st0">
	<path class="st1" d="M-153.8,292.7c0.9,0,1.9,1.1,1.9,5.7c0,11.9-5.4,20-14.9,20c-10.8,0-15.9-7.5-15.9-19.7v-12.5
		c0-9.4-2.6-12.8-6.4-12.8c-6.5,0-13,5.5-13,25.2v18.3c0,0-1.1,1.5-4.1,1.5c-2.9,0-5.6-1.9-5.6-6.5v-40.7c0,0,1.1-1.5,4.1-1.5
		c2.9,0,5.6,1.7,5.6,8c2.9-5.1,7.5-8,14.2-8c9,0,15.2,5.8,15.2,17v15.2c0,8.4,2.9,12.3,7.2,12.3c4.8,0,10.1-4.4,10.1-20.9
		C-155.4,293.3-155.3,292.7-153.8,292.7z"/>
</g>
<g class="st0">
	<path class="st1" d="M-145.4,280.8c0.1-6.6,5.7-11.1,17.9-11.1c11.7,0,18.1,5,18.1,10c0,2.8-2.5,4.3-4.6,4.3
		c-2.6,0-3.2-1.3-3.2-1.3s0.6-0.8,0.6-2.5c0-3.9-5.8-6.3-10.5-6.3c-5.4,0-9.6,1.8-9.6,5.9c0,11.7,29.5,8.6,29.5,25.1
		c0,9.5-9.4,13.6-21.5,13.6c-13.3,0-21.8-8.8-21.8-19.6c0-4.1,1.8-6.4,4.3-6.4c2.6,0,3,1.3,3,1.3s-0.6,1.6-0.6,4
		c0,9.1,5.6,16.6,15.7,16.6c7.5,0,11.3-2.4,11.5-8C-116.6,293.7-145.7,297.4-145.4,280.8z"/>
</g>
<g class="st0">
	<path class="st1" d="M-60.2,294c1.4,0,2.2,1.4,2.2,3.4c0,9-6.2,21-21.5,21c-15.7,0-25.6-8.1-25.6-23.5c0-16.7,9.4-25.3,21.3-25.3
		c9.7,0,13,6.5,13,12.1c0,10.7-9.8,18.6-23.8,18.6c1.4,9.4,7.2,13.8,15.1,13.8c8.5,0,17.7-5.8,17.7-19.6
		C-61.8,294.6-61.7,294-60.2,294z M-94.9,296.4c7.2-1,16.4-4.4,16.4-14c0-5.6-2.6-8.6-7-8.6c-6.6,0-9.4,5.8-9.4,21.6V296.4z"/>
</g>
<g class="st0">
	<path class="st1" d="M-49.9,248.2c3.5,0,6.4,2.9,6.4,6.4c0,3.5-2.9,6.3-6.4,6.3s-6.3-2.8-6.3-6.3
		C-56.2,251.1-53.5,248.2-49.9,248.2z M-23.7,292.7c0.9,0,1.9,1.1,1.9,5.7c0,10.8-6.5,20-15.9,20c-11.8,0-17.1-7.5-17.1-19.7v-22.5
		c0-4.6,2.7-6.5,5.6-6.5c3,0,4.1,1.5,4.1,1.5V302c0,8.4,3.5,12.3,8.8,12.3c4.2,0,11.1-4.4,11.1-20.9
		C-25.3,293.3-25.1,292.7-23.7,292.7z"/>
</g>
</svg>
